<svg width="302" height="127" viewBox="0 0 302 127" fill="none" xmlns="http://www.w3.org/2000/svg">
<g clip-path="url(#clip0_3_19)">
<path d="M194.141 27.9462L220.276 17.8904C226.453 15.5138 233.04 14.3872 239.656 14.5758L251.086 14.9017C254.117 14.9881 257.133 15.3598 260.094 16.0119L271.58 18.5413C278.075 19.9718 283.62 24.1734 286.754 30.0404L287.113 30.7125C295.226 45.9009 283.806 64.1652 266.598 63.5218V63.5218C248.031 62.8276 238.396 41.0709 250.362 26.8561L251.856 25.0818C255.112 21.2132 259.532 18.5012 264.456 17.3504L284.205 12.7346C290.364 11.2952 296.739 11.0373 302.994 11.9745L323.791 15.0907" stroke="#E2ECEB" stroke-width="2" stroke-linecap="round" stroke-dasharray="3 3"/>
<path d="M191.817 30.0676L138.936 76.3964L161.287 82.1418C161.701 82.2601 162.144 82.2315 162.54 82.0612C162.935 81.8908 163.258 81.5893 163.452 81.2086L192.113 30.3055C192.145 30.2666 192.16 30.2169 192.154 30.1671C192.149 30.1174 192.124 30.0717 192.085 30.0402C192.046 30.0086 191.995 29.9938 191.945 29.9989C191.895 30.0041 191.849 30.0288 191.817 30.0676V30.0676Z" stroke="#C89C32" stroke-width="2" stroke-linecap="round" stroke-linejoin="round"/>
<path d="M124.8 70.3583L110.312 66.6989C109.821 66.7353 109.336 66.5774 108.963 66.26C108.59 65.9426 108.36 65.4916 108.323 65.0064C108.286 64.5211 108.446 64.0412 108.767 63.6723C109.088 63.3035 109.544 63.0758 110.034 63.0394L191.41 29.8297C191.437 29.8176 191.467 29.8166 191.495 29.8269C191.523 29.8372 191.545 29.8579 191.558 29.8846C191.57 29.9113 191.571 29.9417 191.561 29.9692C191.55 29.9966 191.529 30.0189 191.502 30.031L124.8 70.2851L133.792 96.9444C133.868 97.4296 134.136 97.8652 134.537 98.1551C134.938 98.4451 135.438 98.5657 135.929 98.4905C136.42 98.4153 136.86 98.1504 137.153 97.754C137.447 97.3577 137.569 96.8624 137.493 96.3771L138.954 76.2501" stroke="#C89C32" stroke-width="2" stroke-linecap="round" stroke-linejoin="round"/>
<path d="M136.715 98.1703L150.759 79.4338" stroke="#C89C32" stroke-width="2" stroke-linecap="round" stroke-linejoin="round"/>
<path d="M127 88.5L101.596 100.282C95.5917 103.066 89.0945 104.631 82.4811 104.885L71.0545 105.325C68.0249 105.441 64.9911 105.272 61.9932 104.82L50.3637 103.064C43.7868 102.072 37.9737 98.2503 34.4544 92.6061L34.0513 91.9596C24.9404 77.3479 35.1129 58.3606 52.3248 57.8513V57.8513C70.8972 57.3019 81.9654 78.3654 70.9776 93.3488L69.6061 95.219C66.6157 99.2968 62.3871 102.298 57.5511 103.776L38.1549 109.703C32.1066 111.551 25.7625 112.235 19.4593 111.718L-1.5 110" stroke="#E2ECEB" stroke-width="2" stroke-linecap="round" stroke-dasharray="3 3"/>
</g>
<defs>
<clipPath id="clip0_3_19">
<rect width="302" height="127" fill="white"/>
</clipPath>
</defs>
</svg>
