<svg width="40" height="38" viewBox="0 0 40 38" fill="none" xmlns="http://www.w3.org/2000/svg">
<path d="M20.14 2.08283L20.14 2.08278C20.1182 2.03886 20.1001 2.02732 20.0901 2.02146C20.0729 2.01133 20.0417 2.00005 19.9997 2.00005C19.9577 2.00005 19.9266 2.01133 19.9096 2.02132C19.8999 2.02704 19.882 2.03835 19.8604 2.08203L19.86 2.08283L15.3485 11.1636C15.3485 11.1636 15.3485 11.1637 15.3485 11.1637C14.7405 12.3876 13.5688 13.2293 12.221 13.4237L20.14 2.08283ZM20.14 2.08283L24.6515 11.1636L20.14 2.08283ZM2.13255 14.88L12.2206 13.4237L10.5428 25.8525C10.776 24.5037 10.3241 23.131 9.34448 22.1819L9.34404 22.1815L2.04439 15.1134C2.02288 15.0926 2.01367 15.078 2.00991 15.0713C2.00591 15.0641 2.00371 15.058 2.00228 15.0517C1.99912 15.0377 1.99774 15.0114 2.00866 14.978C2.01957 14.9446 2.03693 14.9222 2.05053 14.9103C2.05804 14.9038 2.07664 14.888 2.13184 14.8801L2.13255 14.88ZM8.81977 35.8335L10.5426 25.8536L37.8674 14.88C37.9226 14.888 37.9414 14.9038 37.9492 14.9105C37.963 14.9226 37.9804 14.9452 37.9913 14.9786C38.0023 15.012 38.0009 15.0383 37.9977 15.0521C37.9963 15.0583 37.9942 15.0642 37.9903 15.0712C37.9866 15.0778 37.9775 15.0922 37.9561 15.1129L37.9559 15.1131L30.6559 22.1815L30.6555 22.1819C29.6759 23.131 29.224 24.5037 29.4572 25.8525C29.4573 25.8527 29.4573 25.8529 29.4573 25.8531C29.4574 25.8533 29.4574 25.8534 29.4574 25.8536L31.1802 35.8335L31.1803 35.8338C31.1883 35.8804 31.1805 35.8966 31.1778 35.9026C31.1718 35.9165 31.1559 35.9412 31.1237 35.9644C31.0916 35.9876 31.06 35.9972 31.0381 35.9992C31.0242 36.0005 30.9987 36.0013 30.9508 35.9763L21.9283 31.2646L21.9277 31.2643C20.7205 30.6344 19.2795 30.6344 18.0723 31.2643L18.0717 31.2646L9.0487 35.9766L9.04847 35.9767C9.00061 36.0017 8.97533 36.0008 8.96173 35.9995C8.94004 35.9975 8.90855 35.988 8.87642 35.9648C8.84429 35.9416 8.8283 35.9169 8.8222 35.9029L8.82199 35.9024C8.81913 35.8958 8.81186 35.8792 8.81971 35.8338L8.81977 35.8335ZM27.7794 13.4237L37.8672 14.8799L24.6515 11.1637C25.2595 12.3876 26.4312 13.2293 27.779 13.4237C27.7791 13.4237 27.7793 13.4237 27.7794 13.4237Z" stroke="#C89C32" stroke-width="4"/>
</svg>
