<svg width="32" height="32" viewBox="0 0 32 32" fill="none" xmlns="http://www.w3.org/2000/svg">
<path d="M24.242 18.2872L24.2416 18.2876C23.3651 19.1424 22.9638 20.3751 23.1717 21.5837L24.4552 29.0685L17.733 25.5345L17.7324 25.5342C16.6481 24.9647 15.3526 24.9647 14.2683 25.5342L14.2677 25.5345L7.54543 29.0685L8.82895 21.5837C9.03687 20.3751 8.63554 19.1424 7.75906 18.2876L7.75863 18.2872L2.32054 12.9864L9.83573 11.8944C9.83589 11.8943 9.83605 11.8943 9.83621 11.8943C11.0488 11.7182 12.0973 10.9568 12.6397 9.85769C12.6397 9.85765 12.6397 9.85761 12.6398 9.85757L16.0003 3.04817L19.3609 9.85757C19.3609 9.85761 19.3609 9.85765 19.361 9.85769C19.9034 10.9568 20.9519 11.7182 22.1645 11.8943C22.1646 11.8943 22.1648 11.8943 22.1649 11.8944L29.6801 12.9864L24.242 18.2872ZM15.7518 2.54455L15.7519 2.54483L15.7518 2.54455ZM30.0822 12.5946L30.082 12.5947L30.0822 12.5946Z" fill="#C89C32" stroke="#C89C32" stroke-width="4"/>
</svg>
