<svg width="32" height="32" viewBox="0 0 32 32" fill="none" xmlns="http://www.w3.org/2000/svg">
<path d="M24.2416 18.2876L24.242 18.2871L29.6801 12.9864L22.1649 11.8943C22.1648 11.8943 22.1646 11.8943 22.1645 11.8943C20.9519 11.7182 19.9034 10.9568 19.361 9.85767L24.2416 18.2876ZM24.2416 18.2876C23.3651 19.1424 22.9638 20.3751 23.1717 21.5837L24.4552 29.0685L17.733 25.5345L17.7324 25.5342C16.6481 24.9647 15.3526 24.9647 14.2683 25.5342L14.2677 25.5345L7.54543 29.0685L8.82895 21.5837C8.82898 21.5835 8.829 21.5833 8.82903 21.5832C8.82906 21.583 8.8291 21.5828 8.82913 21.5826C9.03664 20.3744 8.63527 19.1422 7.75906 18.2876L7.75863 18.2871L2.32054 12.9864L9.83573 11.8943L24.2416 18.2876ZM16.0003 3.04815L19.3609 9.85755L9.83621 11.8943C11.0488 11.7182 12.0974 10.9567 12.6398 9.85755L16.0003 3.04815ZM1.76474 13.0672L1.76545 13.0671L1.76474 13.0672ZM17.5449 1.65958L17.5443 1.65986L17.5449 1.65958Z" stroke="#C89C32" stroke-width="4"/>
</svg>
