<svg width="40" height="38" viewBox="0 0 40 38" fill="none" xmlns="http://www.w3.org/2000/svg">
<path d="M20.14 2.08278L20.14 2.08273C20.1182 2.03881 20.1001 2.02727 20.0901 2.02141C20.0729 2.01128 20.0417 2 19.9997 2C19.9577 2 19.9266 2.01128 19.9096 2.02127C19.8999 2.02699 19.882 2.0383 19.8604 2.08198L19.86 2.08278L15.3485 11.1636C15.3485 11.1636 15.3485 11.1636 15.3485 11.1637C14.7405 12.3876 13.5688 13.2293 12.221 13.4236C12.2209 13.4237 12.2207 13.4237 12.2206 13.4237L2.13255 14.8799L2.13184 14.88C2.07664 14.888 2.05804 14.9037 2.05053 14.9103C2.03693 14.9222 2.01957 14.9446 2.00866 14.978C1.99774 15.0113 1.99912 15.0377 2.00228 15.0517C2.00371 15.058 2.00591 15.0641 2.00991 15.0712C2.01366 15.0779 2.02279 15.0924 2.04405 15.1131C2.04408 15.1131 2.04411 15.1131 2.04413 15.1131C2.04422 15.1132 2.0443 15.1133 2.04439 15.1134L9.34404 22.1815L9.34448 22.1819C10.3241 23.131 10.776 24.5037 10.5428 25.8525C10.5427 25.8528 10.5426 25.8532 10.5426 25.8535L8.81977 35.8335L8.81971 35.8338C8.81187 35.8792 8.81913 35.8958 8.82199 35.9024L8.8222 35.9029C8.8283 35.9169 8.84429 35.9416 8.87642 35.9648C8.90855 35.988 8.94004 35.9975 8.96173 35.9995C8.97533 36.0008 9.00061 36.0017 9.04847 35.9767L9.0487 35.9766L18.0717 31.2646L18.0723 31.2642C19.2795 30.6344 20.7205 30.6344 21.9277 31.2642L21.9283 31.2646L30.9508 35.9763C30.9987 36.0013 31.0242 36.0005 31.0381 35.9992C31.06 35.9972 31.0916 35.9876 31.1238 35.9644C31.1559 35.9412 31.1718 35.9165 31.1779 35.9026L31.1781 35.9021C31.1809 35.8957 31.1881 35.8792 31.1803 35.8338L31.1802 35.8335L29.4574 25.8535C29.4574 25.8534 29.4574 25.8532 29.4573 25.8531C29.4573 25.8529 29.4573 25.8527 29.4572 25.8525C29.224 24.5037 29.6759 23.131 30.6555 22.1819L30.656 22.1815L37.9559 15.1131L37.9561 15.1129C37.9775 15.0922 37.9866 15.0778 37.9903 15.0712C37.9942 15.0642 37.9963 15.0582 37.9977 15.052C38.0009 15.0383 38.0023 15.012 37.9913 14.9786C37.9804 14.9452 37.963 14.9225 37.9492 14.9105C37.9415 14.9037 37.9227 14.8879 37.8675 14.8799L20.14 2.08278ZM20.14 2.08278L24.6515 11.1636M20.14 2.08278L24.6515 11.1636M24.6515 11.1636C24.6515 11.1636 24.6515 11.1636 24.6515 11.1637C25.2595 12.3876 26.4312 13.2293 27.779 13.4236C27.7791 13.4237 27.7793 13.4237 27.7794 13.4237L37.8672 14.8799L24.6515 11.1636Z" fill="#C89C32" stroke="#C89C32" stroke-width="4"/>
</svg>
